<?xml version="1.0" encoding="utf-8"?>
<!-- Generator: Adobe Illustrator 16.0.4, SVG Export Plug-In . SVG Version: 6.00 Build 0)  -->
<!DOCTYPE svg PUBLIC "-//W3C//DTD SVG 1.1//EN" "http://www.w3.org/Graphics/SVG/1.1/DTD/svg11.dtd">
<svg version="1.1" id="Ebene_1" xmlns="http://www.w3.org/2000/svg" xmlns:xlink="http://www.w3.org/1999/xlink" x="0px" y="0px"
	 width="150px" height="60px" viewBox="0 0 150 60" enable-background="new 0 0 150 60" xml:space="preserve">
<g>
	<path fill="#FFFFFF" d="M38.673,29.324c0.35-1.527,0.75-3.253,1.203-5.188c1.298-5.548,1.947-8.747,1.947-9.597
		c0-1.983-0.944-4.109-2.833-6.375c-1.89-2.267-3.4-3.399-4.533-3.399c-1.37,0-2.102,0.779-2.196,2.337
		c-0.095,2.788-1.31,10.305-3.648,22.559c-0.211,1.105-0.412,2.164-0.604,3.177C31.542,31.605,35.097,30.433,38.673,29.324z"/>
	<path fill="#FFFFFF" d="M25.462,46.809c-0.236,1.434-0.354,2.293-0.354,2.578c0,0.898,0.801,2.328,2.408,4.285
		c1.604,1.96,2.88,2.941,3.825,2.941c0.283,0,0.566-0.164,0.85-0.497c0.754-0.896,1.794-4.366,3.116-10.413
		c0.124-0.648,0.278-1.458,0.462-2.42C32.304,44.422,28.863,45.6,25.462,46.809z"/>
	<path fill="#FFFFFF" d="M78.129,31.654c-0.863,1.807-3.189,4.14-6.981,7.001c-4.912,3.71-9.682,6.339-14.308,7.899
		c0.187-0.472,0.483-1.406,0.885-2.799c0.401-1.391,0.696-2.396,0.885-3.01c3.73-11.616,5.738-19.196,6.021-22.737
		c2.077,0.932,4.007,2.001,5.8,3.196c4.071-0.822,8.163-1.567,12.274-2.235c-2.079-2.303-4.477-4.349-7.201-6.131
		c-3.754-2.455-7.817-4.438-12.184-5.951c-4.368-1.511-8.394-2.266-12.076-2.266c-0.945,0-1.417,0.555-1.417,1.664
		s0.566,2.456,1.7,4.037c1.133,1.583,2.55,2.939,4.25,4.073c-0.614,3.305-2.207,9.385-4.78,18.239
		c-2.575,8.855-3.861,14.25-3.861,16.187c0,0.99,0.885,2.538,2.657,4.639c1.771,2.102,3.057,3.152,3.86,3.152
		c3.588,0,8.192-1.441,13.812-4.322c5.619-2.88,10.565-6.293,14.839-10.236c4.275-3.939,6.41-7.234,6.41-9.879
		c0-0.879-0.08-1.755-0.236-2.626C85.051,30.195,81.598,30.896,78.129,31.654z"/>
	<path fill="#FFFFFF" d="M123.845,44.004c-0.282,0-1.394,0.262-3.328,0.779c-5.714,1.417-11.265,2.125-16.647,2.125
		c-0.803,0-1.203-0.401-1.203-1.205c0-1.509,0.922-5.123,2.763-10.838c4.437-0.186,8.616-0.895,12.538-2.122
		c3.919-1.229,5.878-2.881,5.878-4.959c0-0.472-0.202-0.873-0.601-1.205c-0.403-0.33-0.945-0.496-1.631-0.496
		c-0.684,0-2.468,0.2-5.348,0.459c-2.881,0.259-5.572,0.457-8.074,0.457h-0.426c1.135-4,1.701-7.978,1.701-11.189
		c3.588-0.992,7.673-1.781,12.252-2.301c2.431-0.269,4.434-0.571,6.014-0.873c-0.107-0.107-0.209-0.217-0.297-0.312
		c-2.979-3.324-4.755-4.003-5.191-4.8c-0.477-0.871-0.31-1.053-0.262-1.454c-1.451-0.067-3.046-0.103-4.796-0.103
		c-6.138,0-10.391,0.176-12.749,0.531c-2.363,0.354-3.803,1.193-4.322,2.516c-0.188,0.377-0.282,0.897-0.282,1.558
		c0,0.424,0.022,0.708,0.069,0.849c-0.141,4.486-1.428,11.144-3.859,19.975c-2.433,8.831-3.647,14.344-3.647,16.54
		c0,2.194,0.874,4.106,2.62,5.735c1.748,1.629,3.708,2.444,5.88,2.444c3.635,0,7.341-0.47,11.121-1.417
		c3.776-0.943,6.916-2.219,9.419-3.822c2.503-1.607,3.756-3.263,3.756-4.959C125.191,44.643,124.741,44.004,123.845,44.004z"/>
	<path fill="#FFFFFF" d="M48.511,32.636c0.565-1.947,1.083-3.755,1.554-5.433C35.641,31.117,21.514,36.029,7.774,41.93
		c-2.112,0.908-4.018,7.013-2.6,9.137c0.788,0.473,1.595,0.201,2.285-0.078c12.609-5.131,26.092-9.885,39.811-13.994
		C47.644,35.647,48.058,34.197,48.511,32.636z"/>
	<path fill="#FFFFFF" d="M96.643,18.166c-10.731,1.281-21.357,3.083-31.848,5.405c-0.582,2.479-1.417,5.54-2.51,9.212
		c11.024-2.878,22.049-5.283,32.754-7.08C95.72,22.917,96.254,20.404,96.643,18.166z"/>
	<path fill="#FFFFFF" d="M143.707,13.376c-0.1-0.098-2.75-1.927-2.75-1.927c-2.322-1.645-4.277-3.067-5.456-3.971
		c-4.708-3.618-11.317-4.36-11.317-4.36c-2.713,3.504-0.465,2.372,3.252,6.521c0.932,1.038,3.259,2.749,6.289,4.752
		c0.709,0.466,1.456,0.953,2.234,1.447c-6.803,0-13.58,0.211-20.326,0.623c-1.785,0.321-3.48,0.687-5.078,1.096
		c-0.112,1.868-0.391,3.89-0.836,6.047c8.541-0.995,16.759-1.532,24.471-1.532c-4.402,4.044-7.424,7.017-8.359,8.235
		c-2.555,3.327,3.688,4.395,5.805,1.463c1.059-1.467,5.744-5.36,10.776-9.306l1.422-1.11l0.083-0.063
		c0.586-0.438,0.754-1.694,0.754-1.694s0.435-3.374,0.354-3.938S143.982,13.65,143.707,13.376z"/>
</g>
</svg>
